<svg width="26" height="31" viewBox="0 0 26 31" fill="none" xmlns="http://www.w3.org/2000/svg">
<g clip-path="url(#clip0_161_8497)">
<path d="M21.3792 16.438C21.4224 21.1203 25.4553 22.6785 25.5 22.6984C25.4659 22.8083 24.8556 24.9189 23.3753 27.0991C22.0956 28.9839 20.7674 30.8619 18.6752 30.9008C16.6193 30.9389 15.9583 29.6722 13.6079 29.6722C11.2582 29.6722 10.5237 30.8619 8.57765 30.9389C6.55811 31.0159 5.02025 28.9007 3.72992 27.0228C1.09329 23.1814 -0.921642 16.1679 1.7839 11.4336C3.12796 9.0826 5.52989 7.59382 8.13697 7.55565C10.1201 7.51752 11.992 8.90017 13.2043 8.90017C14.4158 8.90017 16.6905 7.23742 19.0818 7.48161C20.0829 7.5236 22.8929 7.88912 24.6973 10.5508C24.5519 10.6416 21.3444 12.5233 21.3792 16.438ZM17.5155 4.94019C18.5877 3.6323 19.3094 1.81159 19.1125 0C17.567 0.0625954 15.6982 1.03784 14.5897 2.34501C13.5962 3.50257 12.7261 5.35533 12.9609 7.13106C14.6835 7.26537 16.4433 6.24891 17.5155 4.94019Z" fill="white"/>
</g>
<defs>
<clipPath id="clip0_161_8497">
<rect width="25" height="31" fill="white" transform="translate(0.5)"/>
</clipPath>
</defs>
</svg>
