<svg width="132" height="50" viewBox="0 0 132 50" fill="none" xmlns="http://www.w3.org/2000/svg">
<path d="M116.575 7.29852C108.464 7.29852 101.863 13.9273 101.863 22.0763C101.863 30.2253 108.464 36.8541 116.575 36.8541C124.684 36.8541 131.282 30.2253 131.282 22.0763C131.282 13.9273 124.684 7.29852 116.575 7.29852ZM116.575 29.8505C112.309 29.8505 108.835 26.3592 108.835 22.0763C108.835 17.7916 112.309 14.3021 116.575 14.3021C120.837 14.3021 124.313 17.7916 124.313 22.0763C124.313 26.3611 120.838 29.8505 116.573 29.8505H116.575ZM73.2554 19.0835L70.683 17.7935C69.5662 17.2379 68.866 16.8079 68.5844 16.4902C68.316 16.2086 68.1632 15.8365 68.1563 15.4475C68.1563 14.949 68.3808 14.5285 68.8222 14.2013C69.2598 13.8588 69.882 13.7028 70.6716 13.7028C72.1157 13.7028 73.7158 14.5742 75.4777 16.3303L79.8195 11.9676C78.7527 10.5148 77.3575 9.33481 75.7478 8.52382C74.1593 7.72457 72.4042 7.31252 70.6259 7.32121C67.9756 7.32121 65.7875 8.10334 64.0828 9.67872C62.3799 11.2541 61.5237 13.1472 61.5237 15.3676C61.5237 18.8114 63.7783 21.6806 68.3028 23.958L70.6716 25.1472C72.7131 26.1803 73.7291 27.2325 73.7291 28.3208C73.7291 28.9106 73.4457 29.4205 72.8825 29.8733C72.3193 30.3281 71.5735 30.5431 70.6488 30.5431C69.7926 30.5431 68.8108 30.2481 67.7054 29.6488C66.6039 29.0591 65.624 28.2664 64.8172 27.3124L60.4982 32.0385C62.9336 35.235 66.1814 36.8446 70.2644 36.8446C73.3334 36.8446 75.7821 36.0055 77.5972 34.3388C79.4237 32.674 80.337 30.5887 80.337 28.0944C80.337 26.2241 79.8309 24.5821 78.8263 23.1875C77.8122 21.7928 75.9514 20.4343 73.2554 19.0854V19.0835ZM29.5784 33.6348V7.88644H22.5957V9.61023C20.2429 8.09795 17.5043 7.29538 14.7074 7.29851C6.59835 7.29851 0 13.9273 0 22.0763C0 30.2253 6.59835 36.8541 14.7093 36.8541C17.4727 36.8582 20.1802 36.0763 22.5158 34.5995C22.5158 34.8259 22.5044 35.0295 22.5044 35.1665C22.5044 39.4493 19.0302 42.9406 14.7664 42.9406C13.3166 42.9373 11.8973 42.5244 10.6719 41.7496L7.21861 47.8247C9.49571 49.2137 12.1105 49.9508 14.7778 49.9557C22.8887 49.9557 29.5784 43.325 29.5784 35.176C29.5784 34.8601 29.5993 33.9298 29.5784 33.6348ZM14.7093 29.8486C10.4474 29.8486 6.97127 26.3592 6.97127 22.0763C6.97127 17.7916 10.4455 14.3021 14.7093 14.3021C18.9731 14.3021 22.4473 17.7916 22.4473 22.0763C22.4473 26.3592 18.9731 29.8505 14.7093 29.8505V29.8486ZM57.3931 7.87692H50.3762V21.926C50.3876 23.9219 50.3876 27.3676 48.9225 28.8402C48.2224 29.5423 47.4556 30.1777 45.8422 30.1777C44.2173 30.1777 43.4506 29.5423 42.7523 28.8402C41.2854 27.3657 41.2968 23.9105 41.3063 21.926V7.87692H34.2913V21.8841C34.2684 24.7724 34.2342 30.134 37.7541 33.6919C39.8184 35.7772 42.2785 36.8427 45.8308 36.8427C49.3849 36.8427 51.8431 35.7886 53.9075 33.6919C57.4273 30.134 57.3931 24.7609 57.3703 21.8841L57.3931 7.87502V7.87692ZM97.1563 28.5929C96.5931 29.0228 95.2271 29.9761 93.6821 29.7611C92.4188 29.5898 91.3932 28.6613 91.2353 25.5562V13.9064H99.4814V7.85409H91.2353V0H84.2412V1.54114H84.2298V24.6392C84.2298 28.3113 85.1545 36.8427 93.6707 36.8427C97.9802 36.7761 100.596 34.4301 101.692 33.5131L101.839 33.3989L97.6415 28.2085C97.6301 28.218 97.3371 28.4559 97.1563 28.5929Z" fill="#ABABAB"/>
</svg>
