<svg width="40" height="41" viewBox="0 0 40 41" fill="none" xmlns="http://www.w3.org/2000/svg">
<g clip-path="url(#clip0_482_11452)">
<path fill-rule="evenodd" clip-rule="evenodd" d="M20.0871 5.95801C18.8954 5.95801 18.2137 7.45801 17.3104 9.74467C16.7537 11.1597 16.1754 12.6197 15.2504 13.5763C14.0487 14.8163 12.1337 14.913 10.2804 15.0047C7.83374 15.1247 6.65207 15.3013 6.39374 16.4013C6.11041 17.6097 6.91207 18.4263 8.67707 19.883C9.99041 20.9663 11.4787 22.193 11.8754 23.998C12.2154 25.5463 11.8004 27.1713 11.3987 28.7413C10.7804 31.1613 10.5987 32.383 11.6054 33.1447C12.5321 33.843 13.5154 33.333 15.5354 31.9963C16.9587 31.0563 18.4271 30.083 20.0871 30.083C21.7454 30.083 23.2154 31.0563 24.6371 31.9963C26.6554 33.3313 27.6371 33.843 28.5687 33.1447C29.5754 32.383 29.3937 31.1597 28.7737 28.7397C28.3737 27.1713 27.9587 25.5463 28.2987 23.9963C28.6937 22.193 30.1821 20.9663 31.4954 19.883C33.2604 18.428 34.0621 17.6097 33.7787 16.3997C33.5204 15.3013 32.3404 15.1247 29.8937 15.0047C28.0404 14.913 26.1237 14.8163 24.9237 13.5763C23.9987 12.6197 23.4204 11.1597 22.8637 9.74467C21.9587 7.45634 21.2771 5.95801 20.0871 5.95801ZM12.4521 35.9697C11.6804 35.9697 10.8904 35.7347 10.1004 35.1397C7.65374 33.2947 8.38707 30.4263 8.97541 28.123C9.30541 26.833 9.64541 25.5047 9.43207 24.5347C9.22207 23.5713 8.18541 22.718 7.08874 21.813C5.39707 20.4197 3.29041 18.683 3.96041 15.8297C4.67874 12.778 7.84541 12.6213 10.1571 12.508C11.4621 12.443 12.9404 12.3697 13.4537 11.838C14.0337 11.2397 14.5171 10.0147 14.9854 8.82801C15.9304 6.43467 17.1054 3.45801 20.0871 3.45801C23.0671 3.45801 24.2437 6.43467 25.1887 8.82801C25.6571 10.0147 26.1404 11.2397 26.7204 11.838C27.2337 12.3697 28.7121 12.443 30.0171 12.508C32.3287 12.6213 35.4954 12.778 36.2121 15.828C36.8821 18.683 34.7754 20.4197 33.0854 21.813C31.9871 22.718 30.9504 23.5713 30.7404 24.5347C30.5271 25.503 30.8671 26.833 31.1971 28.1213C31.7871 30.4263 32.5187 33.293 30.0737 35.1397C27.6321 36.9763 25.2071 35.3713 23.2571 34.0813C22.1437 33.3447 20.9921 32.583 20.0871 32.583C19.1804 32.583 18.0287 33.3447 16.9154 34.0813C15.5971 34.953 14.0621 35.9697 12.4521 35.9697Z" fill="#307BFD"/>
</g>
<defs>
<clipPath id="clip0_482_11452">
<rect width="40" height="40" fill="white" transform="translate(0 0.124512)"/>
</clipPath>
</defs>
</svg>
