<svg width="138" height="44" viewBox="0 0 138 44" fill="none" xmlns="http://www.w3.org/2000/svg">
<rect x="0.119751" y="7.44409" width="5.8224" height="29.112" rx="2.9112" fill="white"/>
<rect x="8.58838" y="10.0906" width="5.8224" height="16.1439" rx="2.9112" fill="white"/>
<rect x="17.0579" y="7.44409" width="5.8224" height="29.112" rx="2.9112" fill="white"/>
<path d="M31.0109 31V11.7596H36.6526L41.0569 25.478L45.5011 11.7596H51.1295V31H47.2043V16.2836L42.5738 31H39.5267L34.9229 16.3501V31H31.0109ZM58.8595 17.2416V31H55.1471V17.2416H58.8595ZM58.8994 11.7729V15.2724H55.1205V11.7729H58.8994ZM62.4581 31V17.2416H66.2769V19.1843C66.4898 18.8472 66.7648 18.5234 67.1019 18.213C67.4478 17.8936 67.8825 17.6319 68.4059 17.4279C68.9292 17.2239 69.5502 17.1219 70.2687 17.1219C71.1114 17.1219 71.8965 17.286 72.6238 17.6142C73.3601 17.9424 73.9544 18.4613 74.4068 19.171C74.8592 19.8718 75.0855 20.7899 75.0855 21.9253V31H71.2001V22.4043C71.2001 21.6592 70.9783 21.1004 70.5348 20.7278C70.0913 20.3552 69.5502 20.1689 68.9115 20.1689C68.4857 20.1689 68.0732 20.2443 67.674 20.3951C67.2837 20.5459 66.9644 20.7722 66.716 21.0738C66.4676 21.3754 66.3434 21.7479 66.3434 22.1915V31H62.4581ZM82.1208 31.2661C81.2426 31.2661 80.4531 31.102 79.7523 30.7738C79.0515 30.4456 78.4971 29.971 78.0891 29.3501C77.681 28.7202 77.477 27.9574 77.477 27.0614C77.477 25.5534 78.0403 24.4091 79.1668 23.6285C80.2934 22.839 82.072 22.431 84.5025 22.4043L86.219 22.3777V21.5528C86.219 20.923 86.0327 20.4395 85.6602 20.1024C85.2965 19.7565 84.7287 19.5879 83.957 19.5968C83.3893 19.6057 82.8482 19.7387 82.3337 19.996C81.828 20.2532 81.4821 20.7012 81.2958 21.3399H78.0625C78.1157 20.3464 78.404 19.5303 78.9273 18.8916C79.4507 18.244 80.1604 17.765 81.0563 17.4545C81.9611 17.1352 82.9857 16.9755 84.13 16.9755C85.5404 16.9755 86.6714 17.1529 87.523 17.5078C88.3746 17.8537 88.9911 18.3549 89.3725 19.0113C89.754 19.6589 89.9447 20.4306 89.9447 21.3266V31H86.698L86.3787 28.6315C85.9085 29.6251 85.3186 30.3125 84.609 30.694C83.9082 31.0754 83.0788 31.2661 82.1208 31.2661ZM83.4248 28.7114C83.7796 28.7114 84.1211 28.6493 84.4493 28.5251C84.7864 28.392 85.0836 28.2191 85.3408 28.0062C85.6069 27.7844 85.8198 27.536 85.9795 27.261C86.1392 26.986 86.219 26.7022 86.219 26.4094V24.3736L84.8219 24.4002C84.1743 24.4091 83.5711 24.4889 83.0123 24.6398C82.4534 24.7817 82.001 25.0168 81.6551 25.345C81.318 25.6732 81.1494 26.1167 81.1494 26.6756C81.1494 27.3142 81.3712 27.8154 81.8147 28.1791C82.2583 28.534 82.7949 28.7114 83.4248 28.7114ZM93.3841 31V17.2416H97.2029V19.1843C97.4158 18.8472 97.6908 18.5234 98.0278 18.213C98.3738 17.8936 98.8085 17.6319 99.3318 17.4279C99.8552 17.2239 100.476 17.1219 101.195 17.1219C102.037 17.1219 102.822 17.286 103.55 17.6142C104.286 17.9424 104.88 18.4613 105.333 19.171C105.785 19.8718 106.011 20.7899 106.011 21.9253V31H102.126V22.4043C102.126 21.6592 101.904 21.1004 101.461 20.7278C101.017 20.3552 100.476 20.1689 99.8374 20.1689C99.4117 20.1689 98.9992 20.2443 98.6 20.3951C98.2097 20.5459 97.8903 20.7722 97.642 21.0738C97.3936 21.3754 97.2694 21.7479 97.2694 22.1915V31H93.3841ZM115.053 16.9755C116.207 16.9755 117.2 17.2106 118.034 17.6807C118.877 18.1509 119.538 18.7851 120.017 19.5835C120.504 20.3818 120.784 21.2733 120.855 22.258H117.621C117.559 21.8943 117.431 21.535 117.236 21.1802C117.04 20.8165 116.765 20.5193 116.411 20.2887C116.056 20.0492 115.612 19.9294 115.08 19.9294C114.175 19.9294 113.439 20.2798 112.871 20.9806C112.312 21.6725 112.033 22.7281 112.033 24.1474C112.033 25.4869 112.308 26.5514 112.858 27.3409C113.408 28.1215 114.175 28.5118 115.16 28.5118C115.683 28.5118 116.118 28.3832 116.464 28.1259C116.819 27.8687 117.094 27.5626 117.289 27.2078C117.484 26.8441 117.608 26.507 117.661 26.1965H120.815C120.753 27.1457 120.478 28.0062 119.99 28.7779C119.502 29.5408 118.837 30.1484 117.994 30.6008C117.16 31.0444 116.18 31.2661 115.053 31.2661C113.776 31.2661 112.636 30.9823 111.634 30.4145C110.631 29.8468 109.842 29.0352 109.265 27.9795C108.698 26.9151 108.414 25.6466 108.414 24.174C108.414 22.7547 108.689 21.504 109.239 20.4218C109.789 19.3395 110.56 18.4968 111.554 17.8936C112.556 17.2816 113.723 16.9755 115.053 16.9755ZM126.724 25.0123C126.715 25.7131 126.826 26.3252 127.056 26.8485C127.287 27.363 127.62 27.7622 128.054 28.0461C128.498 28.3211 129.03 28.4586 129.651 28.4586C130.316 28.4586 130.897 28.3166 131.394 28.0328C131.9 27.7489 132.25 27.2832 132.445 26.6356H135.945C135.794 27.6114 135.404 28.4453 134.774 29.1372C134.153 29.8291 133.399 30.3569 132.512 30.7206C131.625 31.0843 130.702 31.2661 129.744 31.2661C128.387 31.2661 127.19 30.9823 126.152 30.4145C125.123 29.8379 124.32 29.0263 123.743 27.9795C123.167 26.9328 122.878 25.6998 122.878 24.2805C122.878 22.9055 123.14 21.6681 123.663 20.5681C124.187 19.4593 124.945 18.5855 125.939 17.9469C126.941 17.2993 128.143 16.9755 129.545 16.9755C130.946 16.9755 132.122 17.2727 133.071 17.867C134.029 18.4525 134.747 19.273 135.226 20.3286C135.714 21.3754 135.958 22.5862 135.958 23.9611V25.0123H126.724ZM126.71 22.6971H132.326C132.326 22.1471 132.224 21.6415 132.02 21.1802C131.816 20.7189 131.505 20.3552 131.088 20.0891C130.68 19.823 130.166 19.6899 129.545 19.6899C128.941 19.6899 128.427 19.8363 128.001 20.129C127.584 20.4129 127.265 20.7855 127.043 21.2467C126.821 21.708 126.71 22.1915 126.71 22.6971Z" fill="white"/>
</svg>
