<svg width="16" height="16" viewBox="0 0 16 16" fill="none" xmlns="http://www.w3.org/2000/svg">
<path d="M15 7.99999C15.0004 7.83023 14.9569 7.66324 14.8736 7.51528C14.7904 7.36732 14.6703 7.24341 14.525 7.15562L5.52 1.64687C5.36818 1.5539 5.19429 1.50315 5.0163 1.49985C4.83831 1.49656 4.66266 1.54084 4.5075 1.62812C4.35382 1.71404 4.2258 1.83935 4.1366 1.99116C4.04741 2.14297 4.00026 2.3158 4 2.49187V13.5081C4.00026 13.6842 4.04741 13.857 4.1366 14.0088C4.2258 14.1606 4.35382 14.2859 4.5075 14.3719C4.66266 14.4592 4.83831 14.5034 5.0163 14.5001C5.19429 14.4968 5.36818 14.4461 5.52 14.3531L14.525 8.84437C14.6703 8.75657 14.7904 8.63267 14.8736 8.48471C14.9569 8.33674 15.0004 8.16976 15 7.99999Z" fill="#307BFD"/>
</svg>
