<svg width="28" height="28" viewBox="0 0 28 28" fill="none" xmlns="http://www.w3.org/2000/svg">
<path d="M25.6667 14.0001C25.6674 13.7172 25.5948 13.4389 25.4561 13.1923C25.3174 12.9457 25.1172 12.7392 24.875 12.5928L9.86671 3.41159C9.61367 3.25664 9.32386 3.17206 9.02721 3.16656C8.73055 3.16107 8.43781 3.23487 8.17921 3.38034C7.92307 3.52355 7.7097 3.7324 7.56104 3.98541C7.41239 4.23842 7.3338 4.52647 7.33337 4.81992V23.1803C7.3338 23.4738 7.41239 23.7618 7.56104 24.0148C7.7097 24.2679 7.92307 24.4767 8.17921 24.6199C8.43781 24.7654 8.73055 24.8392 9.02721 24.8337C9.32386 24.8282 9.61367 24.7436 9.86671 24.5887L24.875 15.4074C25.1172 15.2611 25.3174 15.0546 25.4561 14.808C25.5948 14.5614 25.6674 14.2831 25.6667 14.0001Z" fill="#307BFD"/>
</svg>
