<svg width="25" height="25" viewBox="0 0 25 25" fill="none" xmlns="http://www.w3.org/2000/svg">
<path d="M14.1287 12.4915L2.90067 23.513C2.30783 23.0549 1.95752 22.3452 1.95752 21.5997V3.41032C1.95752 2.6558 2.29885 1.94619 2.90067 1.49707L14.1287 12.4915Z" fill="#2196F3"/>
<path d="M23.0392 12.4915C23.0392 13.3628 22.5721 14.1712 21.8086 14.6024L18.2785 16.5605L14.1196 12.5005L18.2785 8.44043L21.8086 10.4166C22.5721 10.8298 23.0392 11.6292 23.0392 12.4915Z" fill="#FFC107"/>
<path d="M18.2873 16.5603L5.48732 23.7103C5.13701 23.8989 4.74178 23.9977 4.33758 23.9977C3.9154 24.0067 3.50221 23.8899 3.1519 23.6744C3.06207 23.6294 2.98123 23.5756 2.90039 23.5217L14.1284 12.5002L18.2873 16.5603Z" fill="#F44336"/>
<path d="M18.2873 8.43102L14.1284 12.4911L2.90039 1.48762C2.98123 1.43372 3.06207 1.37983 3.1519 1.33492C3.87049 0.903761 4.75975 0.885797 5.48732 1.29899L18.2873 8.43102Z" fill="#4CAF50"/>
</svg>
