<svg width="20" height="20" viewBox="0 0 20 20" fill="none" xmlns="http://www.w3.org/2000/svg">
<path fill-rule="evenodd" clip-rule="evenodd" d="M12.2151 5.49685C11.2947 5.49685 10.5485 6.24304 10.5485 7.16351C10.5485 8.08399 11.2947 8.83018 12.2151 8.83018C13.1356 8.83018 13.8818 8.08399 13.8818 7.16351C13.8818 6.24304 13.1356 5.49685 12.2151 5.49685ZM11.3818 7.16351C11.3818 6.70327 11.7549 6.33018 12.2151 6.33018C12.6754 6.33018 13.0485 6.70327 13.0485 7.16351C13.0485 7.62375 12.6754 7.99684 12.2151 7.99684C11.7549 7.99684 11.3818 7.62375 11.3818 7.16351Z" fill="#8C8C8C"/>
<path fill-rule="evenodd" clip-rule="evenodd" d="M14.8594 4.29038C13.317 2.90836 10.9461 3.03834 9.5641 4.5808L8.95309 5.26273C7.98409 6.34421 7.99857 7.96445 8.9364 9.0271L3.66006 14.9159C3.18852 15.4422 3.23289 16.2511 3.75916 16.7226C4.25952 17.1709 5.02139 17.1559 5.50367 16.6882L5.85736 16.3452L6.25186 16.6987C6.73183 17.1287 7.47162 17.0798 7.89078 16.5903C8.29683 16.1161 8.24976 15.4044 7.7848 14.9878L7.38684 14.6312L7.66489 14.3209L8.08626 14.6985C8.54054 15.1055 9.24206 15.0535 9.63139 14.584C10.0002 14.1392 9.9515 13.4825 9.5212 13.097L9.05911 12.6829L10.8019 10.6981C11.9604 11.5118 13.5705 11.3484 14.5386 10.2679L15.1499 9.58567C16.5319 8.04321 16.4018 5.6724 14.8594 4.29038ZM10.1847 5.1369C11.2596 3.93723 13.1036 3.83612 14.3033 4.91103C15.503 5.98594 15.6042 7.82991 14.5293 9.02957L13.918 9.7118C13.1807 10.5347 11.9159 10.6041 11.093 9.86677C10.8865 9.6817 10.5686 9.70074 10.3856 9.90914L7.88858 12.753L8.9651 13.7176C9.06189 13.8043 9.07283 13.952 8.98989 14.0521C8.90232 14.1577 8.74453 14.1694 8.64236 14.0778L7.60034 13.1442L6.2101 14.6958L7.22871 15.6085C7.35633 15.7228 7.36924 15.9181 7.25779 16.0483C7.14275 16.1827 6.9397 16.1961 6.80796 16.078L5.83489 15.2062L4.92354 16.09C4.75537 16.253 4.48972 16.2583 4.31526 16.102C4.13176 15.9375 4.11629 15.6555 4.2807 15.472L9.76736 9.34848C9.95112 9.14338 9.93383 8.82815 9.72873 8.64438C8.90568 7.90692 8.83629 6.64188 9.57374 5.81882L10.1847 5.1369Z" fill="#8C8C8C"/>
</svg>
