<svg width="121" height="51" viewBox="0 0 121 51" fill="none" xmlns="http://www.w3.org/2000/svg">
<g clip-path="url(#clip0_503_149)">
<path d="M120.089 26.1825C120.089 17.6757 115.968 10.9633 108.093 10.9633C100.184 10.9633 95.3991 17.6757 95.3991 26.116C95.3991 36.1181 101.048 41.169 109.156 41.169C113.11 41.169 116.101 40.2718 118.361 39.009V32.3631C116.101 33.4929 113.509 34.1908 110.219 34.1908C106.996 34.1908 104.138 33.061 103.773 29.1399H120.022C120.022 28.7079 120.089 26.98 120.089 26.1825ZM103.673 23.0257C103.673 19.2707 105.966 17.7089 108.059 17.7089C110.086 17.7089 112.246 19.2707 112.246 23.0257H103.673ZM82.5725 10.9633C79.316 10.9633 77.2225 12.4919 76.0595 13.5552L75.6275 11.495H68.317V50.2406L76.6244 48.4794L76.6576 39.0755C77.8539 39.9395 79.615 41.169 82.5392 41.169C88.4873 41.169 93.9037 36.3839 93.9037 25.8502C93.8705 16.2136 88.3876 10.9633 82.5725 10.9633ZM80.5787 33.8585C78.6182 33.8585 77.4551 33.1606 76.6576 32.2967L76.6244 19.9685C77.4884 19.0049 78.6846 18.3403 80.5787 18.3403C83.6026 18.3403 85.696 21.7297 85.696 26.0828C85.696 30.5355 83.6358 33.8585 80.5787 33.8585ZM56.8861 9.00281L65.2267 7.20842V0.46283L56.8861 2.22399V9.00281ZM56.8861 11.5282H65.2267V40.6041H56.8861V11.5282ZM47.9473 13.9872L47.4157 11.5282H40.2381V40.6041H48.5455V20.899C50.506 18.3403 53.829 18.8055 54.8591 19.171V11.5282C53.7957 11.1295 49.9079 10.3984 47.9473 13.9872ZM31.3326 4.31745L23.2246 6.04538L23.1914 32.6622C23.1914 37.5802 26.8798 41.2022 31.7978 41.2022C34.5226 41.2022 36.5164 40.7037 37.613 40.1056V33.36C36.5496 33.792 31.2994 35.3206 31.2994 30.4026V18.6061H37.613V11.5282H31.2994L31.3326 4.31745ZM8.86946 19.9685C8.86946 18.6726 9.93281 18.1741 11.694 18.1741C14.2194 18.1741 17.4094 18.9384 19.9349 20.3008V12.4919C17.1768 11.3953 14.452 10.9633 11.694 10.9633C4.94838 10.9633 0.462402 14.4857 0.462402 20.3673C0.462402 29.5386 13.0896 28.0765 13.0896 32.0308C13.0896 33.5594 11.7604 34.0578 9.89958 34.0578C7.14153 34.0578 3.6192 32.928 0.827927 31.3995V39.3081C3.91827 40.6373 7.04184 41.2022 9.89958 41.2022C16.8113 41.2022 21.5631 37.7795 21.5631 31.8315C21.5299 21.9291 8.86946 23.6902 8.86946 19.9685Z" fill="#ABABAB"/>
</g>
<defs>
<clipPath id="clip0_503_149">
<rect width="119.626" height="50" fill="white" transform="translate(0.462402 0.46283)"/>
</clipPath>
</defs>
</svg>
