<svg width="190" height="50" viewBox="0 0 190 50" fill="none" xmlns="http://www.w3.org/2000/svg">
<g clip-path="url(#clip0_503_120)">
<path d="M20.9071 0H0V50L20.9071 0Z" fill="#ABABAB"/>
<path d="M35.617 0H56.4969V50L35.617 0Z" fill="#ABABAB"/>
<path d="M28.2621 18.4282L41.5691 50H32.8385L28.8614 39.9482H19.1229L28.2621 18.4282Z" fill="#ABABAB"/>
<path d="M90.6053 31.796L93.0705 38.8649C93.1523 39.0419 93.2748 39.1237 93.4928 39.1237H98.2326C98.4914 39.1237 98.5323 39.0011 98.4914 38.7423L88.6984 11.5426C88.6576 11.3247 88.6167 11.2838 88.3988 11.2838H82.5148C82.3514 11.2838 82.256 11.4064 82.256 11.5835C82.1743 13.0136 82.0517 13.4495 81.8747 13.8717L73.1441 38.7014C73.1032 39.0011 73.1986 39.1237 73.4437 39.1237H77.6796C77.9384 39.1237 78.061 39.0419 78.1563 38.7831L80.4854 31.796H90.6053ZM81.8338 27.1787C83.1141 23.3105 84.803 18.3528 85.484 15.5197H85.5249C86.3694 18.489 88.3579 24.3729 89.2569 27.1787H81.8338Z" fill="#ABABAB"/>
<path d="M111.081 39.5467C113.628 39.5467 116.338 39.0836 119.09 37.8987C119.308 37.8169 119.348 37.7216 119.348 37.5173C119.267 36.7546 119.171 35.6513 119.171 34.8069V9.20077C119.171 9.03733 119.171 8.9556 118.967 8.9556H114.35C114.173 8.9556 114.091 9.03733 114.091 9.25525V17.9314C113.369 17.8496 112.865 17.8088 112.266 17.8088C104.816 17.8088 100.239 22.7257 100.239 28.8684C100.239 35.9918 104.938 39.5467 111.081 39.5467ZM114.091 34.8069C113.328 35.052 112.484 35.1474 111.626 35.1474C108.248 35.1474 105.483 33.2405 105.483 28.6097C105.483 24.51 108.33 22.0855 112.102 22.0855C112.865 22.0855 113.533 22.1673 114.091 22.3852V34.8069Z" fill="#ABABAB"/>
<path d="M134.078 17.8088C127.718 17.8088 123.782 22.6848 123.782 28.705C123.782 34.085 126.914 39.5467 133.983 39.5467C139.962 39.5467 144.157 35.1474 144.157 28.5688C144.157 22.7666 140.603 17.8088 134.078 17.8088ZM133.82 22.0855C137.415 22.0855 138.941 25.1773 138.941 28.705C138.941 33.0635 136.694 35.2291 134.078 35.2291C130.85 35.2291 128.944 32.5187 128.944 28.6096C128.944 24.5917 130.973 22.0855 133.82 22.0855Z" fill="#ABABAB"/>
<path d="M148.931 8.9556C148.754 8.9556 148.631 9.03733 148.631 9.25525V38.2392C148.631 38.3618 148.754 38.5797 148.931 38.6205C150.961 39.2471 153.085 39.5467 155.278 39.5467C161.557 39.5467 167.659 35.6513 167.659 27.8061C167.659 22.1264 163.764 17.8088 157.662 17.8088C156.259 17.8088 154.951 18.0267 153.807 18.4081L153.753 9.29611C153.753 8.99647 153.671 8.9556 153.371 8.9556H148.931ZM162.442 28.3236C162.442 33.0226 159.228 35.2291 155.755 35.2291C155.033 35.2291 154.393 35.1882 153.807 35.0112V22.644C154.475 22.3852 155.278 22.1673 156.763 22.1673C160.113 22.1673 162.442 24.292 162.442 28.3236Z" fill="#ABABAB"/>
<path d="M184.891 29.8491C186.961 29.8491 188.663 29.8082 189.249 29.672C189.467 29.6312 189.549 29.5494 189.59 29.3724C189.712 28.9093 189.767 27.9423 189.767 26.7573C189.767 22.7257 187.342 17.8088 181.077 17.8088C174.675 17.8088 171.12 23.0253 171.12 28.9093C171.12 34.1259 173.872 39.5467 181.581 39.5467C184.468 39.5467 186.334 39.0836 187.942 38.3209C188.105 38.2392 188.187 38.103 188.187 37.8578V34.3302C188.187 34.1259 188.064 34.085 187.942 34.1667C186.334 34.8477 184.591 35.1882 182.684 35.1882C178.366 35.1882 176.405 32.8047 176.283 29.8491H184.891ZM176.283 26.1989C176.623 24.1286 177.931 21.8812 180.859 21.8812C184.087 21.8812 184.931 24.5917 184.931 25.8175C184.931 25.8584 184.931 26.0354 184.931 26.158C184.754 26.1989 184.21 26.1989 182.602 26.1989H176.283Z" fill="#ABABAB"/>
</g>
<defs>
<clipPath id="clip0_503_120">
<rect width="189.767" height="50" fill="white"/>
</clipPath>
</defs>
</svg>
