<svg width="174" height="45" viewBox="0 0 174 45" fill="none" xmlns="http://www.w3.org/2000/svg">
<g clip-path="url(#clip0_503_94)">
<path fill-rule="evenodd" clip-rule="evenodd" d="M130.735 11.0548C133.192 11.0548 135.184 9.06666 135.184 6.61416C135.184 4.16165 133.192 2.17354 130.735 2.17354C128.277 2.17354 126.285 4.16165 126.285 6.61416C126.285 9.06666 128.277 11.0548 130.735 11.0548ZM171.915 0.045105H167.68C167.126 0.045105 166.594 0.416363 166.513 0.860026L164.977 12.4502C164.937 12.7568 165.156 13.0077 165.468 13.0077H168.576C169.122 13.0077 169.711 12.591 169.893 12.0767L173.48 1.91887C174.008 0.848541 173.337 0.045105 171.915 0.045105ZM165.649 37.8965C165.643 37.898 165.447 37.9412 165.39 37.9537C165.291 37.9751 165.209 37.9929 165.131 38.0091C164.724 38.0927 164.399 38.1407 164.06 38.1596C162.558 38.2428 161.442 36.7972 161.652 35.0905L161.732 34.3182C162.128 31.4448 162.417 29.2727 162.682 27.149C163.026 24.3936 163.139 22.9865 163.071 21.3878C162.948 18.4585 161.47 16.4219 158.755 15.5638C157.316 15.1089 155.765 14.842 154.251 14.7876C149.744 14.6263 145.184 15.4979 139.982 17.332C138.857 17.7284 138.254 18.4765 138.136 19.6459C138.113 19.8808 138.083 20.0798 138.013 20.5C137.968 20.7714 137.949 20.892 137.928 21.0411C137.512 24.0613 137.176 26.5016 136.433 31.9024C136.278 33.0219 136.216 33.4748 136.134 34.0748C135.938 35.4994 135.623 36.9605 135.623 36.9605C135.308 38.5983 133.916 38.3581 133.421 38.3853C131.973 38.4645 131.16 37.7499 131.102 36.3248C131.078 35.7309 131.101 35.1139 131.169 34.3317C132.85 22.6909 133.663 16.9909 133.764 16.0095C133.836 15.3141 133.636 15.0834 132.957 15.074C130.485 15.0385 128.283 15.0427 126.181 15.0939C125.279 15.1159 124.939 15.4407 124.805 16.3907C124.727 16.948 124.518 18.3883 124.112 21.1814C124.035 21.7099 123.953 22.2752 123.838 23.0671C123.765 23.565 123.765 23.565 123.691 24.0758C123.616 24.5921 123.585 24.8083 123.539 25.1192C123.286 26.8611 123.091 28.1963 122.902 29.5044C122.893 29.5648 122.893 29.5648 122.884 29.6252C122.768 30.4246 122.345 33.6276 122.345 33.6276C122.164 34.9814 122.149 36.2776 122.277 37.4716C122.016 37.7072 118.331 40.8633 115.349 33.4184C115.278 33.2402 115.209 33.0741 115.142 32.9201C114.993 32.5358 114.83 32.1181 114.642 31.6343C114.542 31.3759 114.176 30.4339 114.202 30.4995C114.025 30.0444 113.892 29.7026 113.762 29.3688C113.703 29.2172 113.756 29.0455 113.889 28.9526C114.015 28.865 114.141 28.7796 114.31 28.6662C114.356 28.6358 114.514 28.5304 114.514 28.5301C114.594 28.4767 114.655 28.4363 114.713 28.3968C115.039 28.1766 115.268 28.0108 115.482 27.8366C117.525 26.1698 118.934 23.9075 119.914 20.9527C120.521 19.1231 120.795 17.5442 120.711 15.9927C120.669 15.2048 120.373 14.8443 119.788 14.8348C117.685 14.8006 115.506 14.8086 113.204 14.8555C112.655 14.8667 112.376 15.1414 112.277 15.7625C112.232 16.0452 112.206 16.3378 112.183 16.7507C112.179 16.8316 112.175 16.8945 112.166 17.0816C112.053 19.3143 111.404 21.287 110.176 23.0027C108.813 24.9059 105.909 25.993 103.745 25.3993C103.575 25.3528 103.466 25.1883 103.488 25.014C103.635 23.8933 103.719 23.2571 104.03 20.8835C104.59 16.6124 104.87 14.4673 105.196 11.9678C105.247 11.5736 105.294 11.2116 105.394 10.4511C105.767 7.61309 105.927 6.35001 106.105 4.7706C106.204 3.88627 105.979 3.65533 105.09 3.71824C102.731 3.88552 100.673 4.04955 98.708 4.23031C97.5142 4.34017 97.2223 4.62629 97.0146 5.89511C96.9266 6.43165 96.8683 6.86483 96.7415 7.87124C96.6829 8.33887 96.6533 8.56907 96.6165 8.84046C95.7273 15.4093 95.1065 19.9909 94.4839 24.5784C94.2775 26.1004 94.1116 27.32 93.7391 30.0571C93.727 30.144 93.727 30.144 93.7153 30.2309C93.2485 33.6599 93.0228 35.3214 92.7552 37.2965C92.7244 37.5242 92.7114 37.6196 92.6936 37.7519C92.6733 37.902 92.5593 38.0223 92.4102 38.0508C91.8766 38.1529 91.475 38.2106 91.0746 38.2323C89.6125 38.3109 88.7917 37.5991 88.7326 36.1763C88.7075 35.5718 88.7306 34.9761 88.8007 34.0778C89.1893 31.3065 89.4764 29.1898 89.739 27.126C90.0935 24.3402 90.2085 22.9593 90.1449 21.3636C90.0264 18.4043 88.5111 16.3508 85.7164 15.4957C84.2264 15.0398 82.602 14.7771 80.993 14.7257C76.4786 14.5816 71.9125 15.4467 66.6427 17.2583C65.4795 17.6583 64.8617 18.4143 64.7204 19.6204C64.6214 20.4651 64.5262 21.1422 64.302 22.6542C64.1993 23.346 64.1542 23.6534 64.0995 24.0373C63.2417 30.0828 62.7439 33.5929 62.207 37.3874C62.1847 37.544 62.1616 37.7072 62.1358 37.8888C62.1148 38.0371 62.0023 38.1557 61.855 38.1849C61.2717 38.3005 60.8596 38.3624 60.4397 38.3853C58.9914 38.4645 58.1791 37.7499 58.1207 36.3248C58.104 35.9171 58.11 35.4907 58.1355 35.0038C58.1528 34.6745 58.2425 33.5258 58.2513 33.4114C58.2513 33.4114 58.3244 32.7019 58.3635 32.3541C58.6426 29.8651 58.924 27.884 59.6039 23.4114C59.9704 21.0011 60.133 19.9088 60.3222 18.5578C60.482 17.4161 60.0892 16.8032 58.8065 16.3638C57.6149 15.9553 57.0605 15.776 56.3798 15.5935C52.5503 14.5679 48.777 14.4648 45.0675 15.3219C40.1462 16.4589 36.6678 19.2999 34.6755 23.8314C34.2092 24.892 33.84 25.9715 33.5593 27.0681C32.1318 22.5251 28.4083 20.0841 28.4083 20.0841C28.4083 20.0841 32.3976 17.3504 32.7872 11.1916C33.1765 5.0325 26.3381 0.0478513 17.8061 0.0478513C7.29557 0.0478513 0.947462 4.47274 0.301327 4.82428C0.183074 4.88844 -0.045416 5.02301 0.00794836 5.21476L1.67452 10.4855C1.76972 10.8406 1.79302 11.1242 2.23597 10.9247C2.23597 10.9247 6.3801 9.24343 7.29557 9.24343C7.29557 9.24343 2.52459 42.2652 2.64034 42.2652C2.52459 43.2467 2.64034 43.5225 3.95491 43.911C4.47878 44.0661 27.9047 49.1968 33.1607 35.5686C33.184 35.7276 33.2078 35.8867 33.2347 36.0464C33.623 38.3791 34.5234 40.2584 36.0434 41.686C38.4223 43.9203 41.3806 44.5577 45.1367 43.918C46.457 43.6933 47.7017 43.0936 48.9691 42.1236C49.129 42.0016 49.3585 42.037 49.4735 42.202C50.434 43.5785 51.8854 44.35 54.7207 44.3445C57.5385 44.3277 59.4428 43.6956 61.2091 43.0966C61.381 43.0382 61.5694 43.1198 61.6443 43.2851C61.7691 43.5605 61.3602 44.14 62.3408 44.14C64.773 44.14 66.9301 44.1817 68.991 44.138C69.9123 44.1185 70.2455 43.8077 70.3945 42.8499C70.5657 41.7521 70.713 40.7365 70.9597 38.9781C70.9745 38.8722 70.9866 38.7863 71.0251 38.5124C71.1752 37.4411 71.2955 36.5827 71.5828 34.5287C72.4076 28.6318 72.7914 25.9051 73.2684 22.577C73.3145 22.2535 73.6037 21.8872 73.9083 21.7636C75.3046 21.1959 76.777 20.9447 78.2875 21.0153C79.8022 21.0862 80.7359 21.859 81.0193 23.2761C81.1193 23.7752 81.1471 24.2673 81.0882 24.7157C80.7237 27.4888 80.3636 30.1615 79.8781 33.8156C79.8781 33.8156 78.3288 43.0749 85.7424 44.1769C89.4614 44.1929 97.7927 44.2915 99.8476 44.2423C100.587 44.2249 100.918 43.8896 101.043 43.0414C101.185 42.0775 101.294 41.275 101.525 39.5176C101.597 38.9706 101.629 38.7261 101.67 38.4215C101.782 37.5812 101.897 36.7108 102.042 35.613C102.082 35.3104 102.374 33.0924 102.461 32.439C102.484 32.264 102.634 32.1329 102.811 32.1329H105.549C105.694 32.1329 105.824 32.2215 105.877 32.3561C105.886 32.3776 105.969 32.5833 105.996 32.6529C106.008 32.6829 106.019 32.7116 106.029 32.7396C106.685 34.0121 108.602 37.7347 109.097 38.7434C109.588 39.7428 113.864 46.0524 119.517 44.2321C120.412 44.0533 122.225 43.4654 123.48 41.5584C124.391 43.204 125.735 44.2364 127.351 44.3237V44.4061H140.295V44.32C140.976 44.2948 142.492 44.2249 142.727 44.1802C143.182 44.0938 143.454 43.8009 143.564 43.3842C143.665 43.003 143.739 42.6482 143.786 42.3082C144.004 40.7332 144.191 39.371 144.56 36.6958C144.576 36.5795 144.576 36.5795 144.592 36.4629C145.542 29.566 145.966 26.4971 146.502 22.6647C146.548 22.3366 146.812 21.9581 147.11 21.834C148.493 21.2573 149.96 21.0041 151.475 21.075C152.703 21.1324 153.606 21.6967 153.967 22.7793C154.182 23.4234 154.268 24.1245 154.191 24.7409C153.863 27.3697 153.58 29.5196 152.996 33.8466C152.985 33.9243 152.975 34.0026 152.964 34.0815C152.773 35.6495 152.167 43.6386 159.473 44.2471C160.915 44.2578 161.532 44.2314 162.227 44.1133C163.183 43.9512 163.882 43.6187 164.438 43.0292C165.574 41.8263 166.418 40.1665 166.418 38.5983C166.418 37.8965 165.817 37.8595 165.649 37.8965ZM16.7386 7.87799C16.7513 7.78611 16.8192 7.71096 16.9107 7.68749C16.9415 7.6795 16.9979 7.66627 17.0775 7.64954C17.2081 7.62232 17.3574 7.59486 17.5225 7.56939C18.6066 7.40211 19.7583 7.39487 20.8446 7.65528C21.6345 7.84453 25.0862 8.6557 23.9843 13.0601C22.8822 17.4648 17.2792 17.5989 16.4424 17.5527C16.2302 17.5409 16.0358 17.5285 15.8632 17.516C15.8025 17.5115 15.7489 17.5075 15.7031 17.5037C15.6753 17.5015 15.656 17.5 15.646 17.499C15.5134 17.4875 15.4175 17.3694 15.4355 17.2398L16.7386 7.87799ZM25.8461 31.639C24.3772 38.2822 15.4192 37.539 14.2425 37.4741C13.9443 37.4576 13.671 37.4398 13.4282 37.4224C13.3433 37.4161 13.2679 37.4104 13.2032 37.4051C13.1641 37.4019 13.1371 37.3997 13.1231 37.3984C12.9367 37.3824 12.8021 37.2164 12.8274 37.0341L14.6588 23.8743C14.6769 23.7452 14.7723 23.6394 14.9009 23.6064C14.9442 23.5954 15.0236 23.5767 15.1351 23.5535C15.319 23.5148 15.5287 23.4763 15.761 23.4406C17.285 23.2054 18.9039 23.1955 20.4307 23.5612C21.5413 23.8274 27.315 24.9958 25.8461 31.639ZM50.9494 23.6044C50.775 24.7025 49.6303 33.72 49.2572 36.1448C49.1453 36.8723 48.4788 37.4458 47.7836 37.6538C46.3683 38.0773 45.3536 38.1357 44.3136 37.6978C43.2008 37.2291 42.508 36.3088 42.2382 35.0915C41.3395 31.0361 41.931 27.2815 44.0904 23.917C45.2148 22.1656 47.1086 21.2168 49.0794 21.3516C50.3639 21.4398 50.6164 21.4847 50.883 21.803C51.153 22.1259 51.143 22.3825 50.9494 23.6044Z" fill="#ABABAB"/>
</g>
<defs>
<clipPath id="clip0_503_94">
<rect width="173.676" height="45" fill="white"/>
</clipPath>
</defs>
</svg>
