<svg width="24" height="24" viewBox="0 0 24 24" fill="none" xmlns="http://www.w3.org/2000/svg">
<g clip-path="url(#clip0_401_1042)">
<rect x="-5" width="34" height="24" rx="2" fill="white"/>
<mask id="mask0_401_1042" style="mask-type:luminance" maskUnits="userSpaceOnUse" x="-5" y="0" width="34" height="24">
<rect x="-5" width="34" height="24" rx="2" fill="white"/>
</mask>
<g mask="url(#mask0_401_1042)">
<rect x="-5" width="34" height="24" fill="#0A17A7"/>
<path fill-rule="evenodd" clip-rule="evenodd" d="M-6.55793 -2.29956L7.95247 7.37268V-1.5999H16.0477V7.37172L30.5566 -2.29955L32.3674 0.353369L20.8957 8.0001H29.0001V16.0001H20.8954L32.3674 23.647L30.5566 26.2999L16.0477 16.6286V25.6001H7.95247V16.6277L-6.55793 26.2999L-8.36865 23.647L3.10332 16.0001H-4.99991V8.0001H3.10306L-8.36865 0.35336L-6.55793 -2.29956Z" fill="white"/>
<path fill-rule="evenodd" clip-rule="evenodd" d="M33.4422 -2.65646C33.5855 -2.44115 33.5251 -2.15177 33.3072 -2.01012L17.9279 7.98852C17.71 8.13017 17.4172 8.07045 17.2738 7.85513C17.1305 7.63982 17.1909 7.35044 17.4088 7.20879L32.7882 -2.78985C33.006 -2.9315 33.2989 -2.87178 33.4422 -2.65646Z" fill="#DB1F35"/>
<path fill-rule="evenodd" clip-rule="evenodd" d="M33.4798 25.8813C33.6255 25.6676 33.5684 25.3775 33.3521 25.2335L19.5653 16.0501C19.349 15.906 19.0556 15.9625 18.9098 16.1762C18.764 16.3899 18.8212 16.68 19.0374 16.824L32.8242 26.0074C33.0405 26.1515 33.334 26.095 33.4798 25.8813Z" fill="#DB1F35"/>
<path fill-rule="evenodd" clip-rule="evenodd" d="M-10.0519 -2.26601C-9.90614 -2.47974 -9.61266 -2.53623 -9.39639 -2.3922L4.98442 7.18554C5.20069 7.32958 5.25786 7.6196 5.11211 7.83333C4.96635 8.04706 4.67287 8.10355 4.4566 7.95951L-9.92421 -1.61822C-10.1405 -1.76226 -10.1976 -2.05229 -10.0519 -2.26601Z" fill="#DB1F35"/>
<path fill-rule="evenodd" clip-rule="evenodd" d="M-10.0538 27.0305C-9.90971 27.2452 -9.61666 27.3039 -9.39931 27.1615L6.54125 16.7148C6.7586 16.5723 6.81796 16.2827 6.67382 16.0679C6.52968 15.8532 6.23664 15.7945 6.01929 15.9369L-9.92128 26.3836C-10.1386 26.5261 -10.198 26.8157 -10.0538 27.0305Z" fill="#DB1F35"/>
<path fill-rule="evenodd" clip-rule="evenodd" d="M-5 14.4H9.57143V24H14.4286V14.4H29V9.6H14.4286V0H9.57143V9.6H-5V14.4Z" fill="#E6273E"/>
</g>
</g>
<defs>
<clipPath id="clip0_401_1042">
<rect width="24" height="24" rx="12" fill="white"/>
</clipPath>
</defs>
</svg>
