<svg width="24" height="24" viewBox="0 0 24 24" fill="none" xmlns="http://www.w3.org/2000/svg">
<rect x="-5" width="34" height="24" rx="2" fill="white"/>
<mask id="mask0_58_6174" style="mask-type:luminance" maskUnits="userSpaceOnUse" x="-5" y="0" width="34" height="24">
<rect x="-5" width="34" height="24" rx="2" fill="white"/>
</mask>
<g mask="url(#mask0_58_6174)">
<rect x="-5" width="34" height="24" fill="#0A17A7"/>
<path fill-rule="evenodd" clip-rule="evenodd" d="M-6.55793 -2.29956L7.95247 7.37268V-1.5999H16.0477V7.37172L30.5566 -2.29955L32.3674 0.353369L20.8957 8.0001H29.0001V16.0001H20.8954L32.3674 23.647L30.5566 26.2999L16.0477 16.6286V25.6001H7.95247V16.6277L-6.55793 26.2999L-8.36865 23.647L3.10332 16.0001H-4.99991V8.0001H3.10306L-8.36865 0.35336L-6.55793 -2.29956Z" fill="white"/>
<path fill-rule="evenodd" clip-rule="evenodd" d="M33.442 -2.65646C33.5853 -2.44115 33.5249 -2.15177 33.307 -2.01012L17.9276 7.98852C17.7097 8.13017 17.4169 8.07045 17.2736 7.85513C17.1302 7.63982 17.1907 7.35044 17.4085 7.20879L32.7879 -2.78985C33.0058 -2.9315 33.2986 -2.87178 33.442 -2.65646Z" fill="#DB1F35"/>
<path fill-rule="evenodd" clip-rule="evenodd" d="M33.4798 25.8812C33.6255 25.6674 33.5684 25.3774 33.3521 25.2334L19.5653 16.05C19.349 15.9059 19.0556 15.9624 18.9098 16.1761C18.764 16.3898 18.8212 16.6798 19.0374 16.8239L32.8242 26.0073C33.0405 26.1513 33.334 26.0949 33.4798 25.8812Z" fill="#DB1F35"/>
<path fill-rule="evenodd" clip-rule="evenodd" d="M-10.0521 -2.26601C-9.90638 -2.47974 -9.6129 -2.53623 -9.39663 -2.3922L4.98418 7.18554C5.20045 7.32958 5.25761 7.6196 5.11186 7.83333C4.96611 8.04706 4.67263 8.10355 4.45636 7.95951L-9.92445 -1.61822C-10.1407 -1.76226 -10.1979 -2.05229 -10.0521 -2.26601Z" fill="#DB1F35"/>
<path fill-rule="evenodd" clip-rule="evenodd" d="M-10.0541 27.0303C-9.90995 27.2451 -9.61691 27.3038 -9.39956 27.1613L6.54101 16.7147C6.75836 16.5722 6.81771 16.2826 6.67357 16.0678C6.52944 15.853 6.23639 15.7944 6.01904 15.9368L-9.92152 26.3835C-10.1389 26.5259 -10.1982 26.8155 -10.0541 27.0303Z" fill="#DB1F35"/>
<path fill-rule="evenodd" clip-rule="evenodd" d="M-5 14.4H9.57143V24H14.4286V14.4H29V9.6H14.4286V0H9.57143V9.6H-5V14.4Z" fill="#E6273E"/>
</g>
</svg>
