<svg width="138" height="45" viewBox="0 0 138 45" fill="none" xmlns="http://www.w3.org/2000/svg">
<path d="M132.871 27.5014L136.676 30.0377C135.441 31.8565 132.487 34.9769 127.381 34.9769C121.041 34.9769 116.318 30.0711 116.318 23.8305C116.318 17.1894 121.091 12.6841 126.847 12.6841C132.638 12.6841 135.474 17.2895 136.392 19.7757L136.893 21.0439L121.975 27.2178C123.11 29.4537 124.879 30.5884 127.381 30.5884C129.884 30.5884 131.62 29.3536 132.871 27.5014ZM121.174 23.4801L131.136 19.3419C130.585 17.9569 128.95 16.9725 126.998 16.9725C124.511 16.9725 121.057 19.175 121.174 23.4801Z" fill="#ABABAB"/>
<path d="M109.127 1.32082H113.932V33.959H109.127V1.32082Z" fill="#ABABAB"/>
<path d="M101.551 13.5518H106.19V33.375C106.19 41.6013 101.334 44.9886 95.5943 44.9886C90.1879 44.9886 86.9341 41.351 85.716 38.3975L89.971 36.6288C90.7386 38.4476 92.5907 40.6001 95.5943 40.6001C99.2819 40.6001 101.551 38.3141 101.551 34.0424V32.4405H101.384C100.283 33.7754 98.1806 34.9769 95.5108 34.9769C89.9376 34.9769 84.8317 30.1212 84.8317 23.8638C84.8317 17.5732 89.9376 12.6674 95.5108 12.6674C98.1639 12.6674 100.283 13.8521 101.384 15.1537H101.551V13.5518ZM101.885 23.8638C101.885 19.9259 99.2652 17.0559 95.928 17.0559C92.5574 17.0559 89.7207 19.9259 89.7207 23.8638C89.7207 27.7517 92.5574 30.5717 95.928 30.5717C99.2652 30.5884 101.885 27.7517 101.885 23.8638Z" fill="#ABABAB"/>
<path d="M58.4508 23.7804C58.4508 30.2046 53.4449 34.9268 47.3044 34.9268C41.1639 34.9268 36.1581 30.1879 36.1581 23.7804C36.1581 17.3229 41.1639 12.6174 47.3044 12.6174C53.4449 12.6174 58.4508 17.3229 58.4508 23.7804ZM53.5784 23.7804C53.5784 19.7757 50.675 17.0225 47.3044 17.0225C43.9338 17.0225 41.0304 19.7757 41.0304 23.7804C41.0304 27.7517 43.9338 30.5383 47.3044 30.5383C50.675 30.5383 53.5784 27.7517 53.5784 23.7804Z" fill="#ABABAB"/>
<path d="M82.7959 23.8305C82.7959 30.2547 77.7901 34.9769 71.6496 34.9769C65.5091 34.9769 60.5032 30.2547 60.5032 23.8305C60.5032 17.3729 65.5091 12.6841 71.6496 12.6841C77.7901 12.6841 82.7959 17.3562 82.7959 23.8305ZM77.9069 23.8305C77.9069 19.8258 75.0035 17.0726 71.6329 17.0726C68.2623 17.0726 65.3589 19.8258 65.3589 23.8305C65.3589 27.8018 68.2623 30.5884 71.6329 30.5884C75.0202 30.5884 77.9069 27.7851 77.9069 23.8305Z" fill="#ABABAB"/>
<path d="M17.8366 30.0878C10.8451 30.0878 5.37204 24.4479 5.37204 17.4564C5.37204 10.4648 10.8451 4.82491 17.8366 4.82491C21.6077 4.82491 24.3609 6.30998 26.3966 8.21221L29.7506 4.85829C26.9139 2.13844 23.1261 0.0693512 17.8366 0.0693512C8.25875 0.0693512 0.199326 7.87849 0.199326 17.4564C0.199326 27.0342 8.25875 34.8434 17.8366 34.8434C23.0093 34.8434 26.9139 33.1414 29.9675 29.971C33.1045 26.834 34.0723 22.4288 34.0723 18.858C34.0723 17.74 33.9388 16.5887 33.7886 15.7377H17.8366V20.3764H29.1999C28.8662 23.2798 27.9485 25.2655 26.5969 26.6171C24.9616 28.269 22.3753 30.0878 17.8366 30.0878Z" fill="#ABABAB"/>
</svg>
