<svg width="40" height="41" viewBox="0 0 40 41" fill="none" xmlns="http://www.w3.org/2000/svg">
<g clip-path="url(#clip0_482_8036)">
<path d="M33.7447 4.78351C33.5069 4.4426 33.1502 4.21533 32.6745 4.21533H18.4058C17.9302 4.21533 17.5735 4.4426 17.3356 4.78351L9.01222 19.5562C8.77441 19.8972 8.77441 20.3517 9.01222 20.6926C9.25003 21.0335 9.60675 21.2608 10.0824 21.2608H15.3142L9.01222 34.4426C8.77441 34.8972 8.89332 35.4653 9.36894 35.8062C9.48785 35.9199 9.84456 36.0335 10.0824 36.0335C10.3202 36.0335 10.558 35.9199 10.7958 35.8062L32.1989 21.0335C32.6745 20.6926 32.7934 20.2381 32.6745 19.7835C32.5556 19.329 32.08 18.9881 31.4855 18.9881H26.3725L33.7447 5.91988C33.8636 5.57897 33.8636 5.12442 33.7447 4.78351Z" stroke="#307BFD" stroke-width="2.83199" stroke-linejoin="round"/>
</g>
<defs>
<clipPath id="clip0_482_8036">
<rect width="40" height="40" fill="white" transform="translate(0 0.124512)"/>
</clipPath>
</defs>
</svg>
