<svg width="24" height="24" viewBox="0 0 24 24" fill="none" xmlns="http://www.w3.org/2000/svg">
<path d="M2.781 10.281C2.6404 10.1404 2.56141 9.94967 2.56141 9.75079C2.56141 9.55192 2.6404 9.36119 2.781 9.22054L9.75 2.25004L9.855 2.16154C9.9995 2.0623 10.1742 2.01682 10.3488 2.03298C10.5233 2.04915 10.6867 2.12595 10.8105 2.25004L10.8975 2.35504C10.997 2.49961 11.0428 2.67446 11.0269 2.84926C11.0111 3.02407 10.9345 3.18779 10.8105 3.31204L5.1225 9.00004H21.75C21.9489 9.00004 22.1397 9.07906 22.2803 9.21971C22.421 9.36036 22.5 9.55113 22.5 9.75004C22.5 9.94895 22.421 10.1397 22.2803 10.2804C22.1397 10.421 21.9489 10.5 21.75 10.5H3.3105C3.11197 10.5 2.92156 10.4212 2.781 10.281ZM1.5 14.25C1.5 14.0511 1.57902 13.8604 1.71967 13.7197C1.86032 13.5791 2.05109 13.5 2.25 13.5H20.6895C20.8377 13.5001 20.9826 13.544 21.1059 13.6263C21.2291 13.7087 21.3252 13.8257 21.3821 13.9626C21.4389 14.0995 21.4538 14.2501 21.4251 14.3955C21.3963 14.5409 21.3251 14.6746 21.2205 14.7795L14.25 21.75L14.145 21.8385C13.9906 21.9427 13.8031 21.9858 13.6188 21.9596C13.4345 21.9333 13.2664 21.8396 13.1473 21.6965C13.0281 21.5534 12.9663 21.3712 12.9738 21.1852C12.9814 20.9991 13.0577 20.8225 13.188 20.6895L18.882 15H2.25C2.05109 15 1.86032 14.921 1.71967 14.7804C1.57902 14.6397 1.5 14.449 1.5 14.25Z" fill="#111111"/>
</svg>
