<svg width="108" height="34" viewBox="0 0 108 34" fill="none" xmlns="http://www.w3.org/2000/svg">
<rect x="0.09375" y="5.60815" width="4.55666" height="22.7833" rx="2.27833" fill="#307BFD"/>
<rect x="6.72131" y="7.67896" width="4.55666" height="12.6344" rx="2.27833" fill="#307BFD"/>
<rect x="13.3496" y="5.60791" width="4.55666" height="22.7833" rx="2.27833" fill="#307BFD"/>
<path d="M24.2695 24V8.94228H28.6847L32.1316 19.6785L35.6096 8.94228H40.0145V24H36.9425V12.4828L33.3187 24H30.934L27.331 12.5349V24H24.2695ZM46.064 13.2326V24H43.1587V13.2326H46.064ZM46.0952 8.95269V11.6914H43.1378V8.95269H46.0952ZM48.8803 24V13.2326H51.869V14.7529C52.0356 14.4891 52.2508 14.2357 52.5146 13.9928C52.7853 13.7428 53.1255 13.538 53.5351 13.3784C53.9447 13.2187 54.4306 13.1389 54.993 13.1389C55.6525 13.1389 56.2669 13.2673 56.8361 13.5242C57.4123 13.781 57.8775 14.1871 58.2315 14.7425C58.5856 15.291 58.7626 16.0095 58.7626 16.8981V24H55.7219V17.273C55.7219 16.6898 55.5483 16.2525 55.2012 15.9609C54.8541 15.6693 54.4306 15.5235 53.9308 15.5235C53.5976 15.5235 53.2748 15.5825 52.9624 15.7006C52.6569 15.8186 52.407 15.9956 52.2126 16.2316C52.0182 16.4677 51.921 16.7592 51.921 17.1064V24H48.8803ZM64.2685 24.2083C63.5812 24.2083 62.9634 24.0798 62.4149 23.823C61.8665 23.5661 61.4326 23.1947 61.1133 22.7087C60.7939 22.2158 60.6342 21.6188 60.6342 20.9176C60.6342 19.7375 61.0751 18.8419 61.9567 18.231C62.8384 17.6131 64.2303 17.2938 66.1325 17.273L67.4758 17.2521V16.6065C67.4758 16.1136 67.33 15.7353 67.0385 15.4715C66.7538 15.2007 66.3095 15.0688 65.7055 15.0757C65.2612 15.0827 64.8378 15.1868 64.4351 15.3882C64.0394 15.5895 63.7687 15.9401 63.6229 16.4399H61.0924C61.1341 15.6624 61.3597 15.0237 61.7693 14.5238C62.1789 14.0171 62.7343 13.6422 63.4354 13.3992C64.1435 13.1493 64.9454 13.0243 65.8409 13.0243C66.9447 13.0243 67.8299 13.1632 68.4963 13.4409C69.1628 13.7116 69.6453 14.1038 69.9438 14.6176C70.2423 15.1243 70.3916 15.7283 70.3916 16.4295V24H67.8507L67.6008 22.1464C67.2328 22.924 66.7712 23.462 66.2158 23.7605C65.6674 24.059 65.0183 24.2083 64.2685 24.2083ZM65.289 22.2089C65.5667 22.2089 65.834 22.1603 66.0908 22.0631C66.3546 21.959 66.5872 21.8236 66.7885 21.657C66.9968 21.4834 67.1634 21.2891 67.2884 21.0738C67.4133 20.8586 67.4758 20.6365 67.4758 20.4074V18.8141L66.3824 18.835C65.8756 18.8419 65.4036 18.9044 64.9662 19.0224C64.5288 19.1335 64.1748 19.3175 63.904 19.5743C63.6402 19.8312 63.5083 20.1783 63.5083 20.6157C63.5083 21.1155 63.6819 21.5077 64.029 21.7924C64.3761 22.0701 64.7961 22.2089 65.289 22.2089ZM73.0832 24V13.2326H76.0719V14.7529C76.2385 14.4891 76.4537 14.2357 76.7175 13.9928C76.9883 13.7428 77.3284 13.538 77.738 13.3784C78.1476 13.2187 78.6336 13.1389 79.1959 13.1389C79.8554 13.1389 80.4698 13.2673 81.0391 13.5242C81.6153 13.781 82.0804 14.1871 82.4344 14.7425C82.7885 15.291 82.9655 16.0095 82.9655 16.8981V24H79.9248V17.273C79.9248 16.6898 79.7513 16.2525 79.4042 15.9609C79.057 15.6693 78.6336 15.5235 78.1337 15.5235C77.8005 15.5235 77.4777 15.5825 77.1653 15.7006C76.8598 15.8186 76.6099 15.9956 76.4155 16.2316C76.2211 16.4677 76.1239 16.7592 76.1239 17.1064V24H73.0832ZM90.0419 13.0243C90.9444 13.0243 91.7219 13.2083 92.3745 13.5762C93.034 13.9442 93.5512 14.4405 93.9261 15.0653C94.3079 15.6901 94.5266 16.3878 94.5821 17.1584H92.0517C92.0031 16.8738 91.9024 16.5926 91.7497 16.3149C91.597 16.0303 91.3817 15.7977 91.1041 15.6172C90.8264 15.4298 90.4793 15.3361 90.0627 15.3361C89.3546 15.3361 88.7784 15.6103 88.3341 16.1587C87.8967 16.7002 87.6781 17.5264 87.6781 18.6371C87.6781 19.6854 87.8933 20.5185 88.3237 21.1363C88.7541 21.7472 89.3546 22.0527 90.1252 22.0527C90.5348 22.0527 90.875 21.952 91.1457 21.7507C91.4234 21.5494 91.6386 21.3099 91.7913 21.0322C91.9441 20.7476 92.0413 20.4838 92.0829 20.2408H94.5509C94.5023 20.9836 94.2871 21.657 93.9053 22.261C93.5234 22.858 93.0028 23.3335 92.3432 23.6876C91.6907 24.0347 90.9236 24.2083 90.0419 24.2083C89.0422 24.2083 88.1501 23.9861 87.3657 23.5418C86.5812 23.0975 85.9633 22.4623 85.5121 21.6362C85.0678 20.8031 84.8456 19.8104 84.8456 18.6579C84.8456 17.5472 85.0608 16.5683 85.4913 15.7214C85.9217 14.8744 86.5256 14.2149 87.3032 13.7428C88.0877 13.2638 89.0006 13.0243 90.0419 13.0243ZM99.1752 19.314C99.1683 19.8624 99.2551 20.3414 99.4356 20.751C99.6161 21.1537 99.8764 21.4661 100.217 21.6882C100.564 21.9034 100.98 22.011 101.466 22.011C101.987 22.011 102.442 21.9 102.83 21.6778C103.226 21.4557 103.5 21.0912 103.653 20.5844H106.392C106.274 21.3481 105.968 22.0006 105.475 22.5421C104.989 23.0836 104.399 23.4967 103.705 23.7813C103.011 24.066 102.289 24.2083 101.539 24.2083C100.477 24.2083 99.5397 23.9861 98.7275 23.5418C97.9222 23.0906 97.2939 22.4554 96.8426 21.6362C96.3914 20.817 96.1658 19.852 96.1658 18.7413C96.1658 17.6652 96.3706 16.6968 96.7802 15.8359C97.1897 14.9681 97.7833 14.2843 98.5608 13.7845C99.3453 13.2777 100.286 13.0243 101.383 13.0243C102.48 13.0243 103.4 13.2569 104.142 13.722C104.892 14.1802 105.454 14.8224 105.829 15.6485C106.211 16.4677 106.402 17.4153 106.402 18.4913V19.314H99.1752ZM99.1648 17.5021H103.559C103.559 17.0716 103.479 16.6759 103.32 16.3149C103.16 15.9539 102.917 15.6693 102.591 15.461C102.271 15.2528 101.869 15.1486 101.383 15.1486C100.911 15.1486 100.508 15.2632 100.175 15.4923C99.8486 15.7144 99.5987 16.006 99.4251 16.367C99.2516 16.728 99.1648 17.1064 99.1648 17.5021Z" fill="#111111"/>
</svg>
