<svg width="20" height="20" viewBox="0 0 20 20" fill="none" xmlns="http://www.w3.org/2000/svg">
<path fill-rule="evenodd" clip-rule="evenodd" d="M9.81443 11.4287C9.25693 11.4287 8.7011 11.2446 8.2361 10.8762L4.4986 7.86292C4.22943 7.64625 4.18777 7.25208 4.4036 6.98375C4.6211 6.71625 5.01443 6.67375 5.28277 6.88958L9.01693 9.89958C9.4861 10.2712 10.1469 10.2712 10.6194 9.89625L14.3161 6.89125C14.5844 6.67208 14.9778 6.71375 15.1961 6.98208C15.4136 7.24958 15.3728 7.64292 15.1053 7.86125L11.4019 10.8712C10.9336 11.2429 10.3736 11.4287 9.81443 11.4287Z" fill="#8C8C8C"/>
<mask id="mask0_643_26936" style="mask-type:luminance" maskUnits="userSpaceOnUse" x="0" y="1" width="19" height="18">
<path fill-rule="evenodd" clip-rule="evenodd" d="M0.833496 1.875H18.7501V18.125H0.833496V1.875Z" fill="white"/>
</mask>
<g mask="url(#mask0_643_26936)">
<path fill-rule="evenodd" clip-rule="evenodd" d="M5.69941 16.875H13.8827C13.8844 16.8733 13.8911 16.875 13.8961 16.875C14.8469 16.875 15.6902 16.535 16.3369 15.8892C17.0877 15.1417 17.5002 14.0675 17.5002 12.865V7.14167C17.5002 4.81417 15.9786 3.125 13.8827 3.125H5.70108C3.60524 3.125 2.08358 4.81417 2.08358 7.14167V12.865C2.08358 14.0675 2.49691 15.1417 3.24691 15.8892C3.89358 16.535 4.73774 16.875 5.68774 16.875H5.69941ZM5.68516 18.125C4.39933 18.125 3.251 17.6583 2.36433 16.775C1.37683 15.79 0.833496 14.4017 0.833496 12.865V7.14167C0.833496 4.13917 2.926 1.875 5.701 1.875H13.8827C16.6577 1.875 18.7502 4.13917 18.7502 7.14167V12.865C18.7502 14.4017 18.2068 15.79 17.2193 16.775C16.3335 17.6575 15.1843 18.125 13.896 18.125H13.8827H5.701H5.68516Z" fill="#8C8C8C"/>
</g>
</svg>
