<svg width="233" height="50" viewBox="0 0 233 50" fill="none" xmlns="http://www.w3.org/2000/svg">
<g clip-path="url(#clip0_503_132)">
<path d="M232.727 22.4766V18.3838H227.645V12.0208L227.474 12.0734L222.7 13.5339L222.606 13.5626V18.3838H215.071V15.6983C215.071 14.4477 215.351 13.4906 215.902 12.8523C216.449 12.2217 217.232 11.9012 218.23 11.9012C218.948 11.9012 219.691 12.0703 220.439 12.4038L220.626 12.4873V8.17694L220.538 8.14458C219.841 7.89384 218.891 7.76749 217.715 7.76749C216.233 7.76749 214.886 8.08999 213.711 8.72936C212.536 9.36957 211.611 10.2836 210.963 11.4458C210.318 12.6067 209.99 13.9473 209.99 15.4309V18.3838H206.451V22.4766H209.99V39.7191H215.071V22.4766H222.606V33.434C222.606 37.9467 224.734 40.2338 228.932 40.2338C229.622 40.2338 230.348 40.1527 231.089 39.9943C231.844 39.8319 232.358 39.6696 232.66 39.4962L232.727 39.4568V35.3259L232.521 35.4627C232.245 35.6468 231.902 35.7968 231.499 35.9082C231.094 36.0219 230.757 36.079 230.495 36.079C229.512 36.079 228.784 35.8139 228.333 35.2911C227.876 34.7634 227.645 33.8404 227.645 32.5495V22.4766H232.727ZM195.105 36.0794C193.261 36.0794 191.807 35.4679 190.783 34.2634C189.752 33.0528 189.23 31.3269 189.23 29.1341C189.23 26.8719 189.752 25.1012 190.783 23.8692C191.809 22.6453 193.249 22.0242 195.064 22.0242C196.826 22.0242 198.228 22.6175 199.232 23.7884C200.242 24.9653 200.754 26.7219 200.754 29.0106C200.754 31.3275 200.272 33.1071 199.322 34.2975C198.379 35.4792 196.96 36.0794 195.105 36.0794ZM195.332 17.8698C191.813 17.8698 189.019 18.9006 187.027 20.9338C185.036 22.9673 184.026 25.7811 184.026 29.2982C184.026 32.6386 185.012 35.3255 186.955 37.283C188.899 39.2414 191.544 40.2333 194.817 40.2333C198.227 40.2333 200.966 39.1882 202.958 37.1268C204.949 35.0674 205.958 32.2803 205.958 28.8454C205.958 25.4527 205.011 22.7458 203.143 20.8012C201.274 18.8558 198.646 17.8698 195.332 17.8698ZM175.835 17.8696C173.441 17.8696 171.462 18.4817 169.95 19.6887C168.428 20.9027 167.657 22.4952 167.657 24.4221C167.657 25.4236 167.823 26.3134 168.151 27.0679C168.481 27.8252 168.992 28.4916 169.669 29.051C170.343 29.606 171.381 30.1874 172.758 30.7786C173.915 31.2547 174.778 31.6577 175.326 31.9752C175.862 32.2861 176.242 32.5991 176.457 32.9035C176.665 33.2016 176.771 33.6093 176.771 34.1131C176.771 35.5463 175.698 36.2436 173.489 36.2436C172.67 36.2436 171.736 36.0728 170.712 35.7354C169.687 35.3986 168.73 34.9142 167.868 34.2932L167.657 34.142V39.0333L167.734 39.0693C168.453 39.4011 169.359 39.6808 170.428 39.9012C171.494 40.1215 172.462 40.2338 173.304 40.2338C175.901 40.2338 177.992 39.6186 179.518 38.4046C181.054 37.1821 181.832 35.5522 181.832 33.5584C181.832 32.1204 181.413 30.8869 180.587 29.8924C179.767 28.9058 178.344 28.0002 176.358 27.1996C174.776 26.5647 173.763 26.0376 173.345 25.6333C172.942 25.2424 172.737 24.6897 172.737 23.9898C172.737 23.3693 172.99 22.8723 173.508 22.4696C174.031 22.0649 174.758 21.8592 175.671 21.8592C176.517 21.8592 177.383 21.9929 178.244 22.2549C179.105 22.5169 179.861 22.8678 180.492 23.2972L180.7 23.4391V18.7991L180.62 18.7648C180.038 18.5152 179.27 18.3016 178.338 18.1283C177.409 17.9566 176.567 17.8696 175.835 17.8696ZM154.412 36.0794C152.568 36.0794 151.114 35.4679 150.09 34.2634C149.059 33.0528 148.537 31.3275 148.537 29.1341C148.537 26.8719 149.059 25.1012 150.091 23.8692C151.115 22.6453 152.555 22.0242 154.371 22.0242C156.132 22.0242 157.534 22.6175 158.539 23.7884C159.549 24.9653 160.061 26.7219 160.061 29.0106C160.061 31.3275 159.579 33.1071 158.629 34.2975C157.685 35.4792 156.267 36.0794 154.412 36.0794ZM154.639 17.8698C151.12 17.8698 148.325 18.9006 146.334 20.9338C144.343 22.9673 143.333 25.7811 143.333 29.2982C143.333 32.64 144.319 35.3255 146.262 37.283C148.206 39.2414 150.851 40.2333 154.124 40.2333C157.534 40.2333 160.273 39.1882 162.265 37.1268C164.255 35.0674 165.265 32.2803 165.265 28.8454C165.265 25.4527 164.318 22.7458 162.45 20.8012C160.58 18.8558 157.952 17.8698 154.639 17.8698ZM135.62 22.0784V18.3838H130.602V39.7185H135.62V28.8051C135.62 26.9491 136.041 25.4247 136.871 24.2732C137.691 23.1354 138.783 22.5588 140.117 22.5588C140.569 22.5588 141.076 22.6334 141.626 22.7809C142.17 22.9275 142.564 23.0865 142.796 23.2539L143.007 23.4067V18.3472L142.926 18.3123C142.458 18.1136 141.797 18.0134 140.961 18.0134C139.7 18.0134 138.571 18.4187 137.604 19.2165C136.756 19.9178 136.142 20.8793 135.674 22.0784H135.62ZM121.614 17.8696C119.312 17.8696 117.258 18.3635 115.511 19.3366C113.761 20.312 112.407 21.7047 111.486 23.4757C110.569 25.2424 110.104 27.306 110.104 29.6071C110.104 31.6228 110.555 33.4728 111.447 35.1031C112.34 36.7361 113.604 38.0137 115.203 38.8999C116.8 39.7849 118.646 40.2338 120.689 40.2338C123.074 40.2338 125.111 39.7568 126.743 38.8166L126.809 38.7786V34.1809L126.598 34.3348C125.859 34.8734 125.032 35.3034 124.143 35.6133C123.256 35.9228 122.447 36.0793 121.738 36.0793C119.769 36.0793 118.188 35.463 117.041 34.2484C115.891 33.0319 115.308 31.324 115.308 29.1745C115.308 27.0116 115.916 25.2598 117.114 23.967C118.309 22.6781 119.893 22.0244 121.821 22.0244C123.471 22.0244 125.078 22.583 126.599 23.6862L126.809 23.839V18.9944L126.741 18.9562C126.169 18.6359 125.389 18.3714 124.419 18.1708C123.455 17.9707 122.511 17.8696 121.614 17.8696ZM106.648 18.3838H101.629V39.7186H106.648V18.3838ZM104.189 9.29505C103.363 9.29505 102.643 9.57618 102.051 10.1334C101.457 10.6923 101.155 11.3958 101.155 12.226C101.155 13.0432 101.453 13.7338 102.042 14.2777C102.626 14.82 103.349 15.095 104.189 15.095C105.029 15.095 105.755 14.82 106.347 14.2786C106.942 13.7338 107.244 13.0432 107.244 12.226C107.244 11.4248 106.951 10.7283 106.371 10.1559C105.793 9.58463 105.058 9.29505 104.189 9.29505ZM91.6677 16.8098V39.7185H96.7894V9.94838H89.7009L80.6906 32.0607L71.9468 9.94838H64.5696V39.7185H69.3826V16.8075H69.5481L78.7812 39.7185H82.4134L91.5025 16.8098H91.6677Z" fill="#ABABAB"/>
<path d="M23.6088 23.6088H0V0H23.6088V23.6088Z" fill="#ABABAB"/>
<path d="M49.6758 23.6088H26.0673V0H49.6758V23.6088Z" fill="#ABABAB"/>
<path d="M23.6083 49.6851H0V26.0763H23.6083V49.6851Z" fill="#ABABAB"/>
<path d="M49.6758 49.6851H26.0673V26.0763H49.6758V49.6851Z" fill="#ABABAB"/>
</g>
<defs>
<clipPath id="clip0_503_132">
<rect width="232.727" height="50" fill="white"/>
</clipPath>
</defs>
</svg>
