<svg width="198" height="50" viewBox="0 0 198 50" fill="none" xmlns="http://www.w3.org/2000/svg">
<g clip-path="url(#clip0_503_111)">
<path fill-rule="evenodd" clip-rule="evenodd" d="M63.2153 39.3693L65.6813 33.639C68.3449 35.6307 71.8938 36.6661 75.3952 36.6661C77.9798 36.6661 79.6159 35.6703 79.6159 34.1606C79.5764 29.9399 64.1322 33.2438 64.0136 22.6605C63.9741 17.2858 68.748 13.1442 75.5138 13.1442C79.5368 13.1442 83.552 14.1401 86.4211 16.4085L84.1132 22.2574C81.4891 20.5817 78.2248 19.3882 75.1186 19.3882C73.0082 19.3882 71.6171 20.3841 71.6171 21.6567C71.6567 25.7983 87.2194 23.5299 87.3775 33.639C87.3775 39.1322 82.7221 42.9972 76.0354 42.9972C71.135 42.9893 66.6377 41.8353 63.2153 39.3693ZM157.912 31.5681C156.679 33.718 154.371 35.1881 151.699 35.1881C147.755 35.1881 144.578 32.0028 144.578 28.0667C144.578 24.1306 147.763 20.9453 151.699 20.9453C154.363 20.9453 156.679 22.4154 157.912 24.5653L164.717 20.7872C162.172 16.2504 157.272 13.1442 151.699 13.1442C143.456 13.1442 136.769 19.8309 136.769 28.0746C136.769 36.3184 143.456 43.0051 151.699 43.0051C157.311 43.0051 162.172 39.9384 164.717 35.362L157.912 31.5681ZM90.7999 0.758774H99.3203V42.436H90.7999V0.758774ZM168.06 0.758774V42.436H176.581V29.932L186.69 42.436H197.597L184.738 27.5846L196.641 13.7291H186.208L176.573 25.2292V0.758774H168.06Z" fill="#ABABAB"/>
<path d="M124.636 31.6472C123.403 33.6785 120.858 35.1881 117.989 35.1881C114.045 35.1881 110.868 32.0028 110.868 28.0667C110.868 24.1306 114.053 20.9453 117.989 20.9453C120.858 20.9453 123.403 22.534 124.636 24.6048V31.6472ZM124.636 13.737V17.1198C123.245 14.7724 119.783 13.1363 116.156 13.1363C108.671 13.1363 102.782 19.7439 102.782 28.0272C102.782 36.3105 108.671 42.9972 116.156 42.9972C119.776 42.9972 123.237 41.369 124.636 39.0136V42.3965H133.157V13.737H124.636Z" fill="#ABABAB"/>
<path fill-rule="evenodd" clip-rule="evenodd" d="M10.5517 31.6076C10.5517 34.5163 8.20424 36.8637 5.29561 36.8637C2.38698 36.8637 0.0395203 34.5084 0.0395203 31.6076C0.0395203 28.7069 2.38698 26.3516 5.29561 26.3516H10.5517V31.6076ZM13.1758 31.6076C13.1758 28.699 15.5232 26.3516 18.4319 26.3516C21.3405 26.3516 23.688 28.699 23.688 31.6076V44.7439C23.688 47.6525 21.3405 50 18.4319 50C15.5232 50 13.1758 47.6525 13.1758 44.7439V31.6076Z" fill="#ABABAB"/>
<path fill-rule="evenodd" clip-rule="evenodd" d="M18.4319 10.5122C15.5232 10.5122 13.1758 8.16472 13.1758 5.25609C13.1758 2.34746 15.5232 0 18.4319 0C21.3405 0 23.688 2.34746 23.688 5.25609V10.5122H18.4319ZM18.4319 13.1758C21.3405 13.1758 23.688 15.5232 23.688 18.4319C23.688 21.3405 21.3405 23.688 18.4319 23.688H5.25609C2.34746 23.688 0 21.3326 0 18.4319C0 15.5311 2.34746 13.1758 5.25609 13.1758H18.4319Z" fill="#ABABAB"/>
<path fill-rule="evenodd" clip-rule="evenodd" d="M39.4878 18.4319C39.4878 15.5232 41.8353 13.1758 44.7439 13.1758C47.6525 13.1758 50 15.5232 50 18.4319C50 21.3405 47.6525 23.688 44.7439 23.688H39.4878V18.4319ZM36.8637 18.4319C36.8637 21.3405 34.5163 23.688 31.6076 23.688C28.699 23.688 26.3516 21.3405 26.3516 18.4319V5.25609C26.3516 2.34746 28.699 0 31.6076 0C34.5163 0 36.8637 2.34746 36.8637 5.25609V18.4319Z" fill="#ABABAB"/>
<path fill-rule="evenodd" clip-rule="evenodd" d="M31.6076 39.4878C34.5163 39.4878 36.8637 41.8353 36.8637 44.7439C36.8637 47.6525 34.5163 50 31.6076 50C28.699 50 26.3516 47.6525 26.3516 44.7439V39.4878H31.6076ZM31.6076 36.8637C28.699 36.8637 26.3516 34.5163 26.3516 31.6076C26.3516 28.699 28.699 26.3516 31.6076 26.3516H44.7834C47.6921 26.3516 50.0395 28.699 50.0395 31.6076C50.0395 34.5163 47.6921 36.8637 44.7834 36.8637H31.6076Z" fill="#ABABAB"/>
</g>
<defs>
<clipPath id="clip0_503_111">
<rect width="197.597" height="50" fill="white"/>
</clipPath>
</defs>
</svg>
