<svg width="160" height="50" viewBox="0 0 160 50" fill="none" xmlns="http://www.w3.org/2000/svg">
<g clip-path="url(#clip0_503_141)">
<path d="M24.8922 0C11.1449 0 0 11.1446 0 24.8919C0 38.6398 11.1449 49.7836 24.8922 49.7836C38.641 49.7836 49.7848 38.6398 49.7848 24.8919C49.7848 11.1455 38.641 0.00118898 24.8919 0.00118898L24.8922 0ZM36.3076 35.9013C35.8618 36.6325 34.9046 36.8644 34.1734 36.4155C28.329 32.8456 20.9716 32.0371 12.3069 34.0168C11.4719 34.207 10.6396 33.6839 10.4494 32.8486C10.2582 32.0133 10.7793 31.1811 11.6164 30.9908C21.0985 28.8245 29.232 29.7572 35.7934 33.7671C36.5246 34.2159 36.7565 35.1701 36.3076 35.9013ZM39.3544 29.1235C38.7926 30.0367 37.5977 30.325 36.6851 29.7632C29.9942 25.6505 19.7948 24.4594 11.8806 26.8618C10.8542 27.1718 9.77016 26.5934 9.45865 25.5688C9.14951 24.5424 9.72825 23.4604 10.7529 23.1483C19.793 20.4053 31.0315 21.734 38.7153 26.4557C39.6279 27.0175 39.9162 28.2122 39.3544 29.1235ZM39.616 22.0657C31.5933 17.3006 18.357 16.8624 10.6973 19.1872C9.46727 19.5602 8.16652 18.8659 7.79378 17.6359C7.42103 16.4053 8.1148 15.1054 9.3457 14.7315C18.1385 12.0622 32.7556 12.5779 41.9922 18.0612C43.1009 18.7178 43.4635 20.1467 42.8066 21.2516C42.1527 22.3579 40.72 22.7226 39.6172 22.0657H39.616ZM67.7235 22.9789C63.4254 21.954 62.6614 21.2346 62.6614 19.7231C62.6614 18.2952 64.005 17.3342 66.0054 17.3342C67.9435 17.3342 69.8637 18.0639 71.879 19.5662C71.9385 19.6117 72.0157 19.6298 72.0901 19.6179C72.1673 19.6066 72.2327 19.5653 72.2773 19.5032L74.3759 16.545C74.4621 16.4231 74.4383 16.2552 74.3224 16.1621C71.9236 14.2381 69.2246 13.3026 66.0679 13.3026C61.4279 13.3026 58.1849 16.0875 58.1849 20.0721C58.1849 24.345 60.982 25.858 65.8152 27.0259C69.9261 27.9732 70.6217 28.7668 70.6217 30.1853C70.6217 31.7577 69.2187 32.7356 66.9596 32.7356C64.4509 32.7356 62.4028 31.8885 60.114 29.9088C60.0576 29.8583 59.9803 29.8375 59.9089 29.8405C59.8317 29.8464 59.7633 29.8821 59.7157 29.9386L57.3615 32.7386C57.2635 32.8575 57.2753 33.0299 57.3883 33.131C60.0516 35.5089 63.3273 36.7633 66.8645 36.7633C71.8642 36.7633 75.0953 34.0316 75.0953 29.8018C75.1041 26.2328 72.9669 24.2561 67.7324 22.9827L67.7235 22.9789ZM86.4084 18.7401C84.2415 18.7401 82.4639 19.5938 80.9955 21.3431V19.3742C80.9955 19.2187 80.8707 19.0921 80.7161 19.0921H76.8668C76.7122 19.0921 76.5874 19.2187 76.5874 19.3742V41.2517C76.5874 41.4063 76.7122 41.5341 76.8668 41.5341H80.7161C80.8707 41.5341 80.9955 41.4063 80.9955 41.2517V34.3467C82.4639 35.9905 84.2415 36.796 86.4084 36.796C90.4361 36.796 94.5143 33.6958 94.5143 27.769C94.5202 21.841 90.442 18.7398 86.4114 18.7398L86.4084 18.7401ZM90.0378 27.769C90.0378 30.7857 88.18 32.8932 85.5166 32.8932C82.886 32.8932 80.9004 30.6906 80.9004 27.769C80.9004 24.847 82.886 22.6451 85.5166 22.6451C88.1354 22.6448 90.0378 24.7995 90.0378 27.769ZM104.962 18.7401C99.7755 18.7401 95.7122 22.7339 95.7122 27.8335C95.7122 32.8783 99.7487 36.8287 104.9 36.8287C110.105 36.8287 114.18 32.8486 114.18 27.769C114.18 22.7066 110.132 18.7407 104.962 18.7407V18.7401ZM104.962 32.9229C102.204 32.9229 100.123 30.7055 100.123 27.7675C100.123 24.8161 102.133 22.6745 104.9 22.6745C107.676 22.6745 109.769 24.891 109.769 27.832C109.769 30.7827 107.748 32.9229 104.962 32.9229ZM125.255 19.0921H121.02V14.7624C121.02 14.6072 120.895 14.4806 120.74 14.4806H116.891C116.736 14.4806 116.609 14.6072 116.609 14.7624V19.0921H114.76C114.605 19.0921 114.48 19.2187 114.48 19.3742V22.6816C114.48 22.8368 114.605 22.9637 114.76 22.9637H116.609V31.5229C116.609 34.9799 118.33 36.7336 121.727 36.7336C123.106 36.7336 124.251 36.4482 125.33 35.8359C125.419 35.7884 125.472 35.6932 125.472 35.5922V32.4414C125.472 32.3463 125.422 32.2541 125.339 32.2036C125.255 32.1501 125.151 32.1471 125.065 32.1917C124.325 32.5632 123.609 32.7356 122.806 32.7356C121.573 32.7356 121.02 32.1739 121.02 30.9195V22.9652H125.255C125.41 22.9652 125.535 22.8386 125.535 22.6831V19.3759C125.541 19.2205 125.416 19.0939 125.258 19.0939L125.255 19.0921ZM140.011 19.109V18.5772C140.011 17.0128 140.611 16.3152 141.955 16.3152C142.757 16.3152 143.402 16.4745 144.125 16.7153C144.214 16.7432 144.306 16.7293 144.377 16.6761C144.452 16.6229 144.493 16.5375 144.493 16.4472V13.2042C144.493 13.0803 144.416 12.9706 144.294 12.934C143.533 12.7072 142.558 12.4745 141.096 12.4745C137.544 12.4745 135.662 14.4762 135.662 18.261V19.0754H133.813C133.659 19.0754 133.531 19.2021 133.531 19.3572V22.6816C133.531 22.8368 133.659 22.9637 133.813 22.9637H135.662V36.1629C135.662 36.3204 135.79 36.4453 135.944 36.4453H139.791C139.948 36.4453 140.073 36.3204 140.073 36.1629V22.9646H143.667L149.172 36.1629C148.548 37.5481 147.932 37.8245 147.094 37.8245C146.416 37.8245 145.7 37.6224 144.972 37.2211C144.903 37.1854 144.82 37.1795 144.749 37.2003C144.674 37.227 144.612 37.2805 144.582 37.3519L143.277 40.2143C143.215 40.3511 143.268 40.5086 143.399 40.58C144.761 41.3171 145.988 41.6322 147.507 41.6322C150.349 41.6322 151.921 40.3065 153.303 36.7455L159.98 19.4943C160.015 19.4075 160.003 19.3094 159.95 19.2324C159.899 19.156 159.813 19.1099 159.721 19.1099H155.714C155.592 19.1099 155.485 19.1863 155.447 19.299L151.342 31.0205L146.847 19.2912C146.806 19.1821 146.702 19.1099 146.586 19.1099H140.011V19.109ZM131.456 19.0921H127.607C127.452 19.0921 127.324 19.2187 127.324 19.3742V36.1629C127.324 36.3204 127.452 36.4453 127.607 36.4453H131.456C131.611 36.4453 131.738 36.3204 131.738 36.1629V19.3754C131.738 19.2199 131.613 19.0933 131.456 19.0933V19.0921ZM129.554 11.4472C128.029 11.4472 126.792 12.6814 126.792 14.206C126.792 15.7314 128.029 16.9671 129.554 16.9671C131.078 16.9671 132.312 15.7314 132.312 14.206C132.312 12.6817 131.075 11.4472 129.554 11.4472Z" fill="#ABABAB"/>
</g>
<defs>
<clipPath id="clip0_503_141">
<rect width="160" height="50" fill="white"/>
</clipPath>
</defs>
</svg>
